<svg id="Capa_1" enable-background="new 0 0 512 512" height="512" viewBox="0 0 512 512" width="512" xmlns="http://www.w3.org/2000/svg"><path d="m384.331 69.967-28.977 2.972 3.061 29.843 78-8-8-78-29.844 3.061 2.594 25.291c-42.478-29.277-92.957-45.134-145.165-45.134l-10.667 10.667 10.667 19.333c46.165 0 90.797 14.043 128.331 39.967z" fill="#12b0ff"/><path d="m0 256c0 51.192 15.064 100.605 43.563 142.895l24.878-16.765c-25.149-37.318-38.441-80.933-38.441-126.13 0-60.367 23.508-117.12 66.194-159.806s99.439-66.194 159.806-66.194v-30c-68.38 0-132.667 26.629-181.019 74.981s-74.981 112.639-74.981 181.019z" fill="#36cff5"/><path d="m468.438 113.105-24.879 16.765c25.148 37.318 38.441 80.933 38.441 126.13 0 60.367-23.508 117.12-66.194 159.806-42.685 42.686-99.438 66.194-159.806 66.194l-10.667 15 10.667 15c68.38 0 132.667-26.629 181.02-74.981 48.352-48.352 74.98-112.639 74.98-181.019 0-51.192-15.063-100.605-43.562-142.895z" fill="#12b0ff"/><path d="m127.67 442.034 28.977-2.972-3.061-29.843-78 8 8 78 29.844-3.061-2.594-25.291c42.478 29.276 92.957 45.133 145.164 45.133v-30c-46.164 0-90.795-14.043-128.33-39.966z" fill="#36cff5"/><path d="m164.706 287.484v23.098h-80.181v-18.243l38.546-36.045c8.239-7.65 9.416-12.358 9.416-16.625 0-6.62-4.414-10.593-13.241-10.593-7.503 0-14.271 3.384-18.39 10.004l-21.627-12.064c7.797-12.947 22.362-21.48 42.665-21.48 23.687 0 40.017 12.211 40.017 31.337 0 10.004-2.795 19.126-17.508 32.661l-19.42 17.949h39.723z" fill="#fc7100"/><g fill="#fd4b00"><path d="m322.724 186.706h24.863l-48.549 138.588h-24.864z"/><path d="m432.772 207.597v18.243l-36.338 84.742h-31.779l34.721-79.887h-27.07v15.889h-24.864v-38.987z"/><path d="m257.252 267.77-11.919 9.564 11.919 13.534h15.3v-23.098z"/></g><path d="m229.74 250.263v17.507h-20.891l41.929-60.173h-30.16l-46.196 64.292v18.979h54.435v19.714h28.395v-60.319z" fill="#fc7100"/></svg>